# xmcd
#
# Track frame offsets: 
#        150
#        25769
#        47603
#        67986
#        89996
#        112295
#        132415
#        149637
#        170768
#        188417
#        208125
#        232456
#
# Disc length: 3387 seconds
#
# Revision: 0
# Processed by: cddbd v1.5.2PL0 Copyright (c) Steve Scherf et al.
# Submitted via: ExactAudioCopy v0.90b4
#
DISCID=c10d390c
DTITLE=Kenny James Miller Band - Revelator
DYEAR=2010
DGENRE=Left Coast Blues
TTITLE0=Bone Bottom
TTITLE1=The Revelator
TTITLE2=Border Line
TTITLE3=Troubled Soul
TTITLE4=Gracie
TTITLE5=Nashville Tele
TTITLE6=Ain't No Greener
TTITLE7=Check Out Time
TTITLE8=Move On Down The Line
TTITLE9=Can't You Hear Me
TTITLE10=Reds, Whines and Blues
TTITLE11=Cold As You
EXTD=
EXTT0=
EXTT1=
EXTT2=
EXTT3=
EXTT4=
EXTT5=
EXTT6=
EXTT7=
EXTT8=
EXTT9=
EXTT10=
EXTT11=
PLAYORDER=
